ModelForces
version=1
nRows=4
nColumns=157
inDegrees=no

This file contains the forces exerted on a model during a simulation.

A force is a generalized force, meaning that it can be either a force (N) or a torque (Nm).

Units are S.I. units (second, meters, Newtons, ...)
Angles are in degrees.

endheader
time	glut_med1_r	glut_med2_r	glut_med3_r	glut_min1_r	glut_min2_r	glut_min3_r	semimem_r	semiten_r	bifemlh_r	bifemsh_r	sar_r	add_long_r	add_brev_r	add_mag1_r	add_mag2_r	add_mag3_r	tfl_r	pect_r	grac_r	glut_max1_r	glut_max2_r	glut_max3_r	iliacus_r	psoas_r	quad_fem_r	gem_r	peri_r	rect_fem_r	vas_med_r	vas_int_r	vas_lat_r	med_gas_r	lat_gas_r	soleus_r	tib_post_r	flex_dig_r	flex_hal_r	tib_ant_r	per_brev_r	per_long_r	per_tert_r	ext_dig_r	ext_hal_r	glut_med1_l	glut_med2_l	glut_med3_l	glut_min1_l	glut_min2_l	glut_min3_l	semimem_l	semiten_l	bifemlh_l	bifemsh_l	sar_l	add_long_l	add_brev_l	add_mag1_l	add_mag2_l	add_mag3_l	tfl_l	pect_l	grac_l	glut_max1_l	glut_max2_l	glut_max3_l	iliacus_l	psoas_l	quad_fem_l	gem_l	peri_l	rect_fem_l	vas_med_l	vas_int_l	vas_lat_l	med_gas_l	lat_gas_l	soleus_l	tib_post_l	flex_dig_l	flex_hal_l	tib_ant_l	per_brev_l	per_long_l	per_tert_l	ext_dig_l	ext_hal_l	ercspn_r	ercspn_l	intobl_r	intobl_l	extobl_r	extobl_l	femur_lat_meniscii_r.femur_lat_r.force.X	femur_lat_meniscii_r.femur_lat_r.force.Y	femur_lat_meniscii_r.femur_lat_r.force.Z	femur_lat_meniscii_r.femur_lat_r.torque.X	femur_lat_meniscii_r.femur_lat_r.torque.Y	femur_lat_meniscii_r.femur_lat_r.torque.Z	femur_lat_meniscii_r.meniscus_lat_r.force.X	femur_lat_meniscii_r.meniscus_lat_r.force.Y	femur_lat_meniscii_r.meniscus_lat_r.force.Z	femur_lat_meniscii_r.meniscus_lat_r.torque.X	femur_lat_meniscii_r.meniscus_lat_r.torque.Y	femur_lat_meniscii_r.meniscus_lat_r.torque.Z	femur_med_meniscii_r.femur_med_r.force.X	femur_med_meniscii_r.femur_med_r.force.Y	femur_med_meniscii_r.femur_med_r.force.Z	femur_med_meniscii_r.femur_med_r.torque.X	femur_med_meniscii_r.femur_med_r.torque.Y	femur_med_meniscii_r.femur_med_r.torque.Z	femur_med_meniscii_r.meniscus_med_r.force.X	femur_med_meniscii_r.meniscus_med_r.force.Y	femur_med_meniscii_r.meniscus_med_r.force.Z	femur_med_meniscii_r.meniscus_med_r.torque.X	femur_med_meniscii_r.meniscus_med_r.torque.Y	femur_med_meniscii_r.meniscus_med_r.torque.Z	femur_med_tibia_r.tibia_upper_r.force.X	femur_med_tibia_r.tibia_upper_r.force.Y	femur_med_tibia_r.tibia_upper_r.force.Z	femur_med_tibia_r.tibia_upper_r.torque.X	femur_med_tibia_r.tibia_upper_r.torque.Y	femur_med_tibia_r.tibia_upper_r.torque.Z	femur_med_tibia_r.femur_med_r.force.X	femur_med_tibia_r.femur_med_r.force.Y	femur_med_tibia_r.femur_med_r.force.Z	femur_med_tibia_r.femur_med_r.torque.X	femur_med_tibia_r.femur_med_r.torque.Y	femur_med_tibia_r.femur_med_r.torque.Z	femur_lat_tibia_r.tibia_upper_r.force.X	femur_lat_tibia_r.tibia_upper_r.force.Y	femur_lat_tibia_r.tibia_upper_r.force.Z	femur_lat_tibia_r.tibia_upper_r.torque.X	femur_lat_tibia_r.tibia_upper_r.torque.Y	femur_lat_tibia_r.tibia_upper_r.torque.Z	femur_lat_tibia_r.femur_lat_r.force.X	femur_lat_tibia_r.femur_lat_r.force.Y	femur_lat_tibia_r.femur_lat_r.force.Z	femur_lat_tibia_r.femur_lat_r.torque.X	femur_lat_tibia_r.femur_lat_r.torque.Y	femur_lat_tibia_r.femur_lat_r.torque.Z	aACL_R	pACL_R	aPCL_R	pPCL_R	aMCL_R	mMCL_R	pMCL_R	aLCL_R	mLCL_R	pLCL_R	ground_prescribedForce_fx	ground_prescribedForce_fy	ground_prescribedForce_fz	ground_prescribedForce_px	ground_prescribedForce_py	ground_prescribedForce_pz
      0.00000000	     37.48087652	     28.28714471	     30.25598133	     13.28977762	     14.47626353	     15.91713841	      2.84635770	     17.69180637	     16.38197135	     26.84873255	      7.47001672	     27.93927808	     20.68957741	     14.51222487	     12.16230296	     19.66717628	     12.12055044	     11.16605282	      7.24513918	     18.12681708	     27.55933735	     20.56469162	     63.94906620	     55.74758807	     18.09791099	      9.16719286	     20.03897647	     78.97709599	     61.11377280	     63.35655769	     82.65133073	     20.52117156	     13.81130199	    152.72720615	     92.44658902	     14.93332009	     15.26895791	     41.82851940	     21.62523106	     46.40594865	      8.86060096	     25.04818486	      7.96045570	     37.48087652	     28.28714471	     30.25598133	     13.28977762	     14.47626353	     15.91713841	     42.06683902	     20.39635155	     37.67631238	     36.01822118	      7.59254209	     27.93927808	     20.68957741	     14.51222487	     12.16230296	     19.66717628	     12.58139899	     11.16605282	      7.78214370	     18.12681708	     27.55933735	     20.56469162	     63.94906620	     55.74758807	     18.09791099	      9.16719286	     20.03897647	     52.59637061	     32.48786114	     37.22481259	     39.87514307	     67.71424671	     31.64857027	    152.72720615	     92.44658902	     14.93332009	     15.26895791	     41.82851940	     21.62523106	     46.40594865	      8.86060096	     25.04818486	      7.96045570	    124.99446086	    124.99446086	     44.97041513	     44.97041513	     60.98287244	     60.98287244	    128.91202713	     62.72449194	     -1.29753389	     -0.98928007	      3.20225872	     52.69475338	   -128.91202713	    -62.72449194	      1.29753389	      1.74348624	     -3.69588753	     -1.62585222	     82.27375096	      3.86698241	     11.02043883	     -4.37824916	     -1.77327772	     33.39320652	    -82.27375096	     -3.86698241	    -11.02043883	      0.14027930	      1.21033672	     -1.55685545	      0.00000000	      0.00000000	      0.00000000	      0.00000000	      0.00000000	      0.00000000	      0.00000000	      0.00000000	      0.00000000	      0.00000000	      0.00000000	      0.00000000	  -5494.54667329	  -3142.75575615	  -1722.17345352	    128.08659432	   -193.82600631	    -55.26231968	   5494.54667329	   3142.75575615	   1722.17345352	   -780.10297241	    135.59738246	   2241.76261453	      0.00000000	      0.00000000	    865.74678818	    464.79604671	     23.33303858	      0.83921211	      0.00000000	      0.00000000	      0.00000000	      0.00000000	    -55.00000000	     95.26270000	      0.00000000	      0.03000000	     -0.03000000	      0.00000000
      0.00007404	     37.48082038	     28.28704977	     30.25589699	     13.28965731	     14.47619844	     15.91711339	      2.85826476	     17.70796929	     16.39766470	     26.96143499	      7.49262532	     27.93920148	     20.68928846	     14.51217672	     12.16227438	     19.66715299	     12.13167664	     11.16597850	      7.25975334	     18.12676673	     27.55926203	     20.56464451	     63.94893665	     55.74751417	     18.09782450	      9.16718132	     20.03896644	     79.04137822	     61.22923543	     63.48805556	     82.79714529	     20.56932916	     13.83778476	    152.80274142	     92.45893839	     14.93458101	     15.27079067	     41.80971742	     21.62411751	     46.40636240	      8.85323099	     25.04086030	      7.95803814	     37.48082038	     28.28704977	     30.25589699	     13.28965731	     14.47619844	     15.91711339	     42.06681418	     20.39631766	     37.67628460	     36.01805442	      7.59245918	     27.93920148	     20.68928846	     14.51217672	     12.16227438	     19.66715299	     12.58139318	     11.16597850	      7.78209761	     18.12676673	     27.55926203	     20.56464451	     63.94893665	     55.74751417	     18.09782450	      9.16718132	     20.03896644	     52.59632851	     32.48779933	     37.22475143	     39.87508088	     67.71422232	     31.64855867	    152.72713017	     92.44656991	     14.93332398	     15.26896054	     41.82847971	     21.62521686	     46.40593452	      8.86058581	     25.04815787	      7.96044486	    124.99341601	    124.99341601	     44.97032067	     44.97032067	     60.98277008	     60.98277008	      0.60420207	     -4.56006773	    -17.85200721	      7.46396576	     -0.09147649	      0.18115179	     -0.60420207	      4.56006773	     17.85200721	     -0.59197888	      0.46251132	     -0.04334518	     15.10406415	     -1.59857861	     -1.44985843	      0.56987303	     -0.29708690	      6.12039725	    -15.10406415	      1.59857861	      1.44985843	     -0.01672544	      0.26637743	     -0.32406011	      0.00000000	      0.00000000	      0.00000000	      0.00000000	      0.00000000	      0.00000000	      0.00000000	      0.00000000	      0.00000000	      0.00000000	      0.00000000	      0.00000000	  -2644.84817162	  -1494.24097982	   -783.81819587	     60.06512558	    -92.11931955	    -27.20440295	   2644.84817162	   1494.24097982	    783.81819587	   -356.55997954	     65.03240135	   1079.30839843	      0.00000000	      0.00000000	    876.79439924	    492.68664280	     51.02336580	     28.85586407	      0.00000000	      0.00000000	      0.00000000	      0.00000000	    -55.00000000	     95.26270000	      0.00000000	      0.03000000	     -0.03000000	      0.00000000
      0.00016452	     37.48059946	     28.28667702	     30.25556558	     13.28918818	     14.47594325	     15.91701496	      2.89018181	     17.75290299	     16.43960460	     27.25576637	      7.55274941	     27.93890051	     20.68816842	     14.51198766	     12.16216204	     19.66706133	     12.15940133	     11.16568796	      7.29908253	     18.12656886	     27.55896607	     20.56445927	     63.94842743	     55.74722332	     18.09748547	      9.16713594	     20.03892692	     79.21725735	     61.55937492	     63.85829439	     83.21037283	     20.68558898	     13.90162019	    152.97332443	     92.48702553	     14.93790350	     15.27538478	     41.76736559	     21.62142751	     46.40712527	      8.83657096	     25.02351933	      7.95226209	     37.48059946	     28.28667702	     30.25556558	     13.28918818	     14.47594325	     15.91701496	     42.06671631	     20.39618433	     37.67617520	     36.01740067	      7.59213657	     27.93890051	     20.68816842	     14.51198766	     12.16216204	     19.66706133	     12.58137030	     11.16568796	      7.78191723	     18.12656886	     27.55896607	     20.56445927	     63.94842743	     55.74722332	     18.09748547	      9.16713594	     20.03892692	     52.59616273	     32.48755622	     37.22451083	     39.87483617	     67.71412619	     31.64851294	    152.72683088	     92.44649461	     14.93333927	     15.26897088	     41.82832345	     21.62516093	     46.40587880	      8.86052621	     25.04805158	      7.96040219	    124.98933816	    124.98933816	     44.96994921	     44.96994921	     60.98236768	     60.98236768	    -20.78457033	    -14.52247518	    -21.18388519	      9.08478524	     -0.66565790	     -8.55576035	     20.78457033	     14.52247518	     21.18388519	     -0.96703618	      1.19285993	      0.22961040	      7.67029129	     -1.25891624	     -1.85145575	      0.74082741	     -0.14707265	      3.11012193	     -7.67029129	      1.25891624	      1.85145575	     -0.03130037	      0.15476329	     -0.17589184	      0.00000000	      0.00000000	      0.00000000	      0.00000000	      0.00000000	      0.00000000	      0.00000000	      0.00000000	      0.00000000	      0.00000000	      0.00000000	      0.00000000	  -1578.47020355	   -876.20035472	   -426.26925153	     34.47688735	    -53.97651212	    -16.75793782	   1578.47020355	    876.20035472	    426.26925153	   -195.46203786	     38.67333800	    644.33993893	      0.00000000	      0.00000000	    879.08482304	    497.39859066	     58.58629283	     36.32498689	      0.00000000	      0.00000000	      0.00000000	      0.00000000	    -55.00000000	     95.26270000	      0.00000000	      0.03000000	     -0.03000000	      0.00000000
      0.00028601	     37.48003964	     28.28573545	     30.25472764	     13.28801453	     14.47529998	     15.91676555	      2.94465786	     17.83419482	     16.51146324	     27.74369034	      7.65493134	     27.93813950	     20.68538961	     14.51151006	     12.16187779	     19.66682895	     12.20212432	     11.16495820	      7.36715826	     18.12606857	     27.55821772	     20.56399051	     63.94713923	     55.74648615	     18.09663118	      9.16702092	     20.03882663	     79.52856375	     62.17806095	     64.53898977	     83.97576846	     20.85463332	     13.99421160	    153.18850058	     92.52315558	     14.94352619	     15.28255087	     41.71426741	     21.61743600	     46.40750397	      8.81544717	     24.99923628	      7.94403226	     37.48003964	     28.28573545	     30.25472764	     13.28801453	     14.47529998	     15.91676555	     42.06646795	     20.39584654	     37.67589765	     36.01575290	      7.59133207	     27.93813950	     20.68538961	     14.51151006	     12.16187779	     19.66682895	     12.58131221	     11.16495820	      7.78146356	     18.12606857	     27.55821772	     20.56399051	     63.94713923	     55.74648615	     18.09663118	      9.16702092	     20.03882663	     52.59574216	     32.48694061	     37.22390131	     39.87421616	     67.71388216	     31.64839685	    152.72607121	     92.44630340	     14.93337800	     15.26899702	     41.82792710	     21.62501899	     46.40573732	      8.86037525	     25.04778206	      7.96029400	    124.97912454	    124.97912454	     44.96900889	     44.96900889	     60.98134951	     60.98134951	    -13.30546055	    -13.18767561	    -25.87984576	     10.97547341	     -0.49793557	     -5.48747303	     13.30546055	     13.18767561	     25.87984576	     -1.03975174	      1.09309416	      0.07599909	     10.86825920	     -1.57907767	     -2.55870555	      1.02388857	     -0.20848701	      4.40363715	    -10.86825920	      1.57907767	      2.55870555	     -0.04267346	      0.21791257	     -0.24168248	      0.00000000	      0.00000000	      0.00000000	      0.00000000	      0.00000000	      0.00000000	      0.00000000	      0.00000000	      0.00000000	      0.00000000	      0.00000000	      0.00000000	  -1236.80278736	   -672.03270571	   -294.98544244	     25.74768055	    -41.38204237	    -13.62865469	   1236.80278736	    672.03270571	    294.98544244	   -136.88164260	     30.19695241	    505.06829693	      0.00000000	      0.00000000	    877.25201159	    491.13383281	     57.26245233	     34.67030709	      0.00000000	      0.00000000	      0.00000000	      0.00000000	    -55.00000000	     95.26270000	      0.00000000	      0.03000000	     -0.03000000	      0.00000000
